<svg xmlns="http://www.w3.org/2000/svg" viewBox="0 0 308.97 287.7"><defs><style>.cls-1{fill:none;stroke:#fff;stroke-linecap:round;stroke-miterlimit:10;stroke-width:2px;}</style></defs><title>Business</title><g id="Layer_2" data-name="Layer 2"><g id="Layer_1-2" data-name="Layer 1"><path class="cls-1" d="M308,230.26a21,21,0,1,1,0-42"/><path class="cls-1" d="M176.2,254.43V286.7H293.12A14.86,14.86,0,0,0,308,271.85V230.16"/><polyline class="cls-1" points="1 286.7 49.56 286.7 49.56 277.76"/><path class="cls-1" d="M176.2,254.43V90.13H69.87V84.29a10,10,0,0,1,10-10H176.2v-15H69.87V53.41a10,10,0,0,1,10-10H176.2V1H92.39A42.83,42.83,0,0,0,49.56,43.83V277.76"/></g></g></svg>