<svg xmlns="http://www.w3.org/2000/svg" viewBox="0 0 63.94 98.53"><defs><style>.cls-1{fill:none;stroke:#007eff;stroke-miterlimit:10;stroke-width:2px;}</style></defs><title>Shield_Blue</title><g id="Layer_2" data-name="Layer 2"><g id="Layer_1-2" data-name="Layer 1"><path class="cls-1" d="M40.22,97.71C4.34,72.22,1.06,16.26,1.06,16.26H2.84C19.26,16.26,33.65,1,40.22,1V9.68C34.83,9.68,23,22.2,9.55,22.2H8.09S10.78,68.11,40.22,89V80.25c-22.93-16.29-25-52-25-52h1.14c10.49,0,19.68-9.75,23.88-9.75,3.8,0,12.12,8.37,21.62,8.37h1S61,57.54,40.22,71.53c-16-11.36-17.45-36.3-17.45-36.3h.79c7.32,0,13.73-6.8,16.66-6.8"/></g></g></svg>