<svg xmlns="http://www.w3.org/2000/svg" viewBox="0 0 124.19 192.8"><defs><style>.cls-1{fill:none;stroke:#007eff;stroke-miterlimit:10;stroke-width:2px;}</style></defs><title>Shield_Blue_Large</title><g id="Layer_2" data-name="Layer 2"><g id="Layer_1-2" data-name="Layer 1"><path class="cls-1" d="M78.4,192C7.54,141.64,1.06,31.13,1.06,31.13H4.58C37,31.13,65.42,1,78.4,1V18.14c-10.65,0-34,24.72-60.56,24.72H14.94s5.32,90.67,63.45,132V157.51C33.12,125.34,29,54.73,29,54.73h2.25c20.72,0,38.87-19.25,47.16-19.25,7.51,0,23.94,16.53,42.7,16.53h2s-3.75,60.63-44.73,88.26C46.82,117.83,43.93,68.58,43.93,68.58H45.5c14.45,0,27.11-13.43,32.89-13.43"/></g></g></svg>