<svg xmlns="http://www.w3.org/2000/svg" viewBox="0 0 389 286.39"><defs><style>.cls-1{fill:none;stroke:#fff;stroke-linecap:round;stroke-miterlimit:10;stroke-width:2px;}</style></defs><title>Easy</title><g id="Layer_2" data-name="Layer 2"><g id="Layer_1-2" data-name="Layer 1"><path class="cls-1" d="M210.76,248.56a17.07,17.07,0,0,1,23.75,4.37l3.26,3.89c14.15,16.33,40.28,28.57,75.11,28.57,45.18,0,75.11-22,75.11-53.88,0-26.13-23.4-41.09-42.73-43C366.77,185,385,168.91,385,147.69c0-29.93-25.85-49.8-72.12-49.8-33.47,0-57.42,12.25-72.66,29.39l7,9.14a28,28,0,0,0,33.48,8.6A66.71,66.71,0,0,1,308,139.25c17.42,0,30.48,5.17,30.48,16.6,0,9.52-10.61,14.15-29.39,14.15H284.58v16.6a24.49,24.49,0,0,0,24.49,24.49c24.76,0,32.38,4.9,32.38,15.24C341.46,236.4,331.12,244,311,244a79.19,79.19,0,0,1-32.06-7.3s-21.34-9.1-31.59-24.1-8.88-20-8.88-27.39V171.63a27.21,27.21,0,0,0-27.21-27.21H172c45.18-31.57,65-55.24,65-83C237.08,24.95,206.33,1,163.61,1c-25.31,0-54.16,9-73.48,30.21L100.78,44a25.51,25.51,0,0,0,31.67,6.18,65.93,65.93,0,0,1,32-7.81c13.33,0,25,6.53,25,19.05,0,16.42-12.28,28.29-74.5,73.68-11.83,8.63-18.84,21.4-18.84,36v13.1l0,49.06v52.09h-25a21.77,21.77,0,0,1-21.77-21.77V163.74L18.81,194.49,7.09,182.17a22.08,22.08,0,0,1,.48-30.94l48-47.36H96.1l4.55,0a17.07,17.07,0,0,0,17.07-17.07"/></g></g></svg>