<svg xmlns="http://www.w3.org/2000/svg" viewBox="0 0 167.42 100.52"><defs><style>.cls-1{fill:none;stroke:#007eff;stroke-miterlimit:10;stroke-width:2px;}</style></defs><title>Manage</title><g id="Layer_2" data-name="Layer 2"><g id="Layer_1-2" data-name="Layer 1"><path class="cls-1" d="M167.42,1H77.83A11.28,11.28,0,0,0,67.56,7.61l-31.39,69-2.49-5.48a11.28,11.28,0,0,0-10.27-6.61H1.55l12.9,28.36a11.28,11.28,0,0,0,10.27,6.61H47.63A11.28,11.28,0,0,0,57.9,92.91l38.19-84h6.61L87.23,43.86h40.3L125.26,49H85L82.7,54.09h40.39l-2.2,5.11H80.44l-2.26,5.11L71.28,79.87h54.63L152.34,20.3a8.16,8.16,0,0,0-7.46-11.47H108.54l-4.87,11h15.59l-2.34,4.75-15.63-.12"/><path class="cls-1" d="M146.13,8.83"/><path class="cls-1" d="M114.63,79.87"/></g></g></svg>