<svg xmlns="http://www.w3.org/2000/svg" viewBox="0 0 556.33 182.86"><defs><style>.cls-1{fill:none;stroke:#fff;stroke-miterlimit:10;stroke-width:2px;}</style></defs><title>Rocket</title><g id="Layer_2" data-name="Layer 2"><g id="Layer_1-2" data-name="Layer 1"><path class="cls-1" d="M163.5,97h24.34a27,27,0,0,0,52.89-.09H264V97h18.52a27,27,0,0,0,52.89-.09h23.27V97H377.2a27,27,0,0,0,52.89-.09h88.16v-11H430.07a27,27,0,0,0-52.89.1h-18.5v-.1H335.39a27,27,0,0,0-52.89.1H264v-.1H240.71a27,27,0,0,0-52.89.1H72.77V60.06C120.28,25.58,237.83,1,331.23,1,451.1,1,554.81,91.43,554.81,91.43S451.1,181.86,331.23,181.86c-93,0-210.5-24.34-258.46-58.56V96.87H63v32.49H52.5V56.86H41v80.5L16.8,154.6A10,10,0,0,1,1,146.45V45.62a10,10,0,0,1,15.75-8.18L28,45.35v30H25.53A10.53,10.53,0,0,0,15,85.89H27.5V96.36H26a11.5,11.5,0,0,0-11.5,11.5h12v9.5h0a12,12,0,0,0-12,12h0"/><path class="cls-1" d="M440.61,85.89"/></g></g></svg>