<svg xmlns="http://www.w3.org/2000/svg" viewBox="0 0 184.58 287.28"><defs><style>.cls-1{fill:none;stroke:#fff;stroke-miterlimit:10;stroke-width:2px;}</style></defs><title>Shield</title><g id="Layer_2" data-name="Layer 2"><g id="Layer_1-2" data-name="Layer 1"><path class="cls-1" d="M116.65,286.47C10.75,211.21,1.06,46,1.06,46H6.32C54.79,46,97.25,1,116.65,1V26.62c-15.92,0-50.76,37-90.53,37H21.81s7.95,135.53,94.85,197.28V234.93C49,186.85,42.8,81.31,42.8,81.31h3.36c31,0,58.1-28.77,70.49-28.77,11.22,0,35.79,24.71,63.82,24.71h3s-5.6,90.63-66.87,131.92C69.46,175.63,65.14,102,65.14,102h2.35C89.08,102,108,82,116.65,82"/></g></g></svg>